ffmpeg version 4.0.4-0ubuntu1 Copyright (c) 2000-2019 the FFmpeg developers
  built with gcc 8 (Ubuntu 8.2.0-7ubuntu1)
  configuration: --prefix=/usr --extra-version=0ubuntu1 --toolchain=hardened --libdir=/usr/lib/x86_64-linux-gnu --incdir=/usr/include/x86_64-linux-gnu --arch=amd64 --enable-gpl --disable-stripping --enable-avresample --disable-filter=resample --enable-avisynth --enable-gnutls --enable-ladspa --enable-libaom --enable-libass --enable-libbluray --enable-libbs2b --enable-libcaca --enable-libcdio --enable-libcodec2 --enable-libflite --enable-libfontconfig --enable-libfreetype --enable-libfribidi --enable-libgme --enable-libgsm --enable-libjack --enable-libmp3lame --enable-libmysofa --enable-libopenjpeg --enable-libopenmpt --enable-libopus --enable-libpulse --enable-librsvg --enable-librubberband --enable-libshine --enable-libsnappy --enable-libsoxr --enable-libspeex --enable-libssh --enable-libtheora --enable-libtwolame --enable-libvorbis --enable-libvpx --enable-libwavpack --enable-libwebp --enable-libx265 --enable-libxml2 --enable-libxvid --enable-libzmq --enable-libzvbi --enable-lv2 --enable-omx --enable-openal --enable-opengl --enable-sdl2 --enable-libdc1394 --enable-libdrm --enable-libiec61883 --enable-chromaprint --enable-frei0r --enable-libopencv --enable-libx264 --enable-shared
  libavutil      56. 14.100 / 56. 14.100
  libavcodec     58. 18.100 / 58. 18.100
  libavformat    58. 12.100 / 58. 12.100
  libavdevice    58.  3.100 / 58.  3.100
  libavfilter     7. 16.100 /  7. 16.100
  libavresample   4.  0.  0 /  4.  0.  0
  libswscale      5.  1.100 /  5.  1.100
  libswresample   3.  1.100 /  3.  1.100
  libpostproc    55.  1.100 / 55.  1.100
[rtsp @ 0x5599748dfa00] Missing PPS in sprop-parameter-sets, ignoring
Input #0, rtsp, from 'rtsp://admin:xiriox3000@10.1.1.74:554':
  Metadata:
    title           : Media Presentation
  Duration: N/A, start: 0.373333, bitrate: N/A
    Stream #0:0: Video: h264 (Main), yuvj420p(pc, bt709, progressive), 1280x720, 15 fps, 25 tbr, 90k tbn, 30 tbc
Output #0, mp4, to '/home/xirioxinf/Ext1/2020-01-03/CAM4//CAM4_admin123_admin_2020-01-03_13-36-13.mp4':
  Metadata:
    title           : Media Presentation
    encoder         : Lavf58.12.100
    Stream #0:0: Video: h264 (Main) (avc1 / 0x31637661), yuvj420p(pc, bt709, progressive), 1280x720, q=2-31, 15 fps, 25 tbr, 90k tbn, 90k tbc
Stream mapping:
  Stream #0:0 -> #0:0 (copy)
Press [q] to stop, [?] for help
[mp4 @ 0x559974900c00] Non-monotonous DTS in output stream 0:0; previous: 0, current: -30000; changing to 1. This may result in incorrect timestamps in the output file.
[mp4 @ 0x559974900c00] Non-monotonous DTS in output stream 0:0; previous: 1, current: -22800; changing to 2. This may result in incorrect timestamps in the output file.
[mp4 @ 0x559974900c00] Non-monotonous DTS in output stream 0:0; previous: 2, current: -15600; changing to 3. This may result in incorrect timestamps in the output file.
[mp4 @ 0x559974900c00] Non-monotonous DTS in output stream 0:0; previous: 3, current: -12000; changing to 4. This may result in incorrect timestamps in the output file.
[mp4 @ 0x559974900c00] Non-monotonous DTS in output stream 0:0; previous: 4, current: -4800; changing to 5. This may result in incorrect timestamps in the output file.
frame=   37 fps=0.0 q=-1.0 size=    1280kB time=00:00:02.02 bitrate=5174.1kbits/s speed=3.71x    frame=   45 fps= 42 q=-1.0 size=    1536kB time=00:00:02.54 bitrate=4941.1kbits/s speed=2.39x    frame=   53 fps= 33 q=-1.0 size=    1792kB time=00:00:03.06 bitrate=4787.1kbits/s speed=1.93x    frame=   61 fps= 28 q=-1.0 size=    2304kB time=00:00:03.62 bitrate=5204.4kbits/s speed=1.69x    frame=   69 fps= 26 q=-1.0 size=    2560kB time=00:00:04.14 bitrate=5057.5kbits/s speed=1.55x    frame=   77 fps= 24 q=-1.0 size=    2816kB time=00:00:04.66 bitrate=4943.4kbits/s speed=1.47x    frame=   85 fps= 23 q=-1.0 size=    3072kB time=00:00:05.22 bitrate=4815.0kbits/s speed=1.39x    frame=   93 fps= 22 q=-1.0 size=    3328kB time=00:00:05.74 bitrate=4744.2kbits/s speed=1.35x    frame=  101 fps= 21 q=-1.0 size=    3584kB time=00:00:06.26 bitrate=4685.2kbits/s speed=1.31x    frame=  109 fps= 20 q=-1.0 size=    4096kB time=00:00:06.82 bitrate=4915.2kbits/s speed=1.28x    frame=  117 fps= 20 q=-1.0 size=    4352kB time=00:00:07.34 bitrate=4852.8kbits/s speed=1.25x    frame=  125 fps= 20 q=-1.0 size=    4608kB time=00:00:07.86 bitrate=4798.6kbits/s speed=1.23x    frame=  133 fps= 19 q=-1.0 size=    4864kB time=00:00:08.42 bitrate=4728.6kbits/s speed=1.21x    frame=  141 fps= 19 q=-1.0 size=    5120kB time=00:00:08.94 bitrate=4688.7kbits/s speed= 1.2x    frame=  149 fps= 19 q=-1.0 size=    5376kB time=00:00:09.46 bitrate=4652.7kbits/s speed=1.19x    frame=  157 fps= 18 q=-1.0 size=    5632kB time=00:00:10.02 bitrate=4602.0kbits/s speed=1.17x    frame=  165 fps= 18 q=-1.0 size=    6144kB time=00:00:10.54 bitrate=4772.8kbits/s speed=1.16x    frame=  173 fps= 18 q=-1.0 size=    6400kB time=00:00:11.06 bitrate=4738.0kbits/s speed=1.15x    frame=  181 fps= 18 q=-1.0 size=    6656kB time=00:00:11.62 bitrate=4690.2kbits/s speed=1.15x    frame=  189 fps= 18 q=-1.0 size=    6912kB time=00:00:12.14 bitrate=4662.0kbits/s speed=1.14x    frame=  197 fps= 18 q=-1.0 size=    7168kB time=00:00:12.66 bitrate=4636.2kbits/s speed=1.13x    frame=  205 fps= 17 q=-1.0 size=    7424kB time=00:00:13.22 bitrate=4598.5kbits/s speed=1.13x    frame=  213 fps= 17 q=-1.0 size=    7936kB time=00:00:13.74 bitrate=4729.6kbits/s speed=1.12x    frame=  221 fps= 17 q=-1.0 size=    8192kB time=00:00:14.26 bitrate=4704.2kbits/s speed=1.12x    frame=  229 fps= 17 q=-1.0 size=    8448kB time=00:00:14.82 bitrate=4668.0kbits/s speed=1.11x    frame=  237 fps= 17 q=-1.0 size=    8704kB time=00:00:15.34 bitrate=4646.5kbits/s speed=1.11x    frame=  245 fps= 17 q=-1.0 size=    8960kB time=00:00:15.86 bitrate=4626.4kbits/s speed= 1.1x    frame=  253 fps= 17 q=-1.0 size=    9216kB time=00:00:16.42 bitrate=4596.3kbits/s speed= 1.1x    frame=  261 fps= 17 q=-1.0 size=    9472kB time=00:00:16.94 bitrate=4579.0kbits/s speed= 1.1x    frame=  269 fps= 17 q=-1.0 size=    9984kB time=00:00:17.46 bitrate=4682.9kbits/s speed=1.09x    frame=  277 fps= 17 q=-1.0 size=   10240kB time=00:00:18.02 bitrate=4653.7kbits/s speed=1.09x    frame=  285 fps= 17 q=-1.0 size=   10496kB time=00:00:18.54 bitrate=4636.6kbits/s speed=1.09x    frame=  293 fps= 17 q=-1.0 size=   10752kB time=00:00:19.06 bitrate=4620.1kbits/s speed=1.08x    frame=  301 fps= 17 q=-1.0 size=   11008kB time=00:00:19.62 bitrate=4595.1kbits/s speed=1.08x    frame=  309 fps= 17 q=-1.0 size=   11264kB time=00:00:20.14 bitrate=4580.6kbits/s speed=1.08x    frame=  317 fps= 17 q=-1.0 size=   11520kB time=00:00:20.66 bitrate=4566.8kbits/s speed=1.08x    frame=  325 fps= 16 q=-1.0 size=   11776kB time=00:00:21.22 bitrate=4545.2kbits/s speed=1.08x    frame=  333 fps= 16 q=-1.0 size=   12032kB time=00:00:21.74 bitrate=4532.9kbits/s speed=1.07x    frame=  341 fps= 16 q=-1.0 size=   12544kB time=00:00:22.26 bitrate=4615.4kbits/s speed=1.07x    frame=  349 fps= 16 q=-1.0 size=   12800kB time=00:00:22.82 bitrate=4594.1kbits/s speed=1.07x    frame=  357 fps= 16 q=-1.0 size=   13056kB time=00:00:23.34 bitrate=4581.6kbits/s speed=1.07x    frame=  365 fps= 16 q=-1.0 size=   13312kB time=00:00:23.86 bitrate=4569.6kbits/s speed=1.07x    frame=  373 fps= 16 q=-1.0 size=   13568kB time=00:00:24.42 bitrate=4550.7kbits/s speed=1.06x    frame=  381 fps= 16 q=-1.0 size=   13824kB time=00:00:24.94 bitrate=4539.9kbits/s speed=1.06x    frame=  389 fps= 16 q=-1.0 size=   14080kB time=00:00:25.46 bitrate=4529.6kbits/s speed=1.06x    frame=  397 fps= 16 q=-1.0 size=   14592kB time=00:00:26.02 bitrate=4593.3kbits/s speed=1.06x    frame=  405 fps= 16 q=-1.0 size=   14848kB time=00:00:26.54 bitrate=4582.3kbits/s speed=1.06x    frame=  413 fps= 16 q=-1.0 size=   15104kB time=00:00:27.06 bitrate=4571.7kbits/s speed=1.06x    frame=  421 fps= 16 q=-1.0 size=   15360kB time=00:00:27.62 bitrate=4555.0kbits/s speed=1.06x    frame=  429 fps= 16 q=-1.0 size=   15616kB time=00:00:28.14 bitrate=4545.3kbits/s speed=1.06x    frame=  437 fps= 16 q=-1.0 size=   15872kB time=00:00:28.66 bitrate=4536.2kbits/s speed=1.05x    frame=  445 fps= 16 q=-1.0 size=   16384kB time=00:00:29.22 bitrate=4592.8kbits/s speed=1.05x    frame=  453 fps= 16 q=-1.0 size=   16640kB time=00:00:29.74 bitrate=4583.0kbits/s speed=1.05x    frame=  461 fps= 16 q=-1.0 size=   16896kB time=00:00:30.26 bitrate=4573.5kbits/s speed=1.05x    frame=  469 fps= 16 q=-1.0 size=   17152kB time=00:00:30.82 bitrate=4558.5kbits/s speed=1.05x    frame=  477 fps= 16 q=-1.0 size=   17408kB time=00:00:31.34 bitrate=4549.8kbits/s speed=1.05x    frame=  485 fps= 16 q=-1.0 size=   17664kB time=00:00:31.86 bitrate=4541.3kbits/s speed=1.05x    frame=  493 fps= 16 q=-1.0 size=   17920kB time=00:00:32.42 bitrate=4527.6kbits/s speed=1.05x    frame=  501 fps= 16 q=-1.0 size=   18176kB time=00:00:32.94 bitrate=4519.8kbits/s speed=1.05x    frame=  508 fps= 16 q=-1.0 size=   18432kB time=00:00:33.42 bitrate=4517.6kbits/s speed=1.05x    frame=  516 fps= 16 q=-1.0 size=   18944kB time=00:00:33.94 bitrate=4572.0kbits/s speed=1.05x    frame=  524 fps= 16 q=-1.0 size=   19200kB time=00:00:34.46 bitrate=4563.8kbits/s speed=1.05x    frame=  532 fps= 16 q=-1.0 size=   19456kB time=00:00:35.02 bitrate=4550.7kbits/s speed=1.04x    frame=  540 fps= 16 q=-1.0 size=   19712kB time=00:00:35.54 bitrate=4543.2kbits/s speed=1.04x    frame=  548 fps= 16 q=-1.0 size=   19968kB time=00:00:36.06 bitrate=4535.8kbits/s speed=1.04x    frame=  556 fps= 16 q=-1.0 size=   20480kB time=00:00:36.62 bitrate=4581.0kbits/s speed=1.04x    frame=  564 fps= 16 q=-1.0 size=   20736kB time=00:00:37.14 bitrate=4573.3kbits/s speed=1.04x    frame=  573 fps= 16 q=-1.0 size=   20992kB time=00:00:37.74 bitrate=4556.2kbits/s speed=1.04x    frame=  581 fps= 16 q=-1.0 size=   21248kB time=00:00:38.26 bitrate=4549.1kbits/s speed=1.04x    frame=  589 fps= 16 q=-1.0 size=   21504kB time=00:00:38.82 bitrate=4537.6kbits/s speed=1.04x    frame=  597 fps= 16 q=-1.0 size=   21760kB time=00:00:39.34 bitrate=4530.9kbits/s speed=1.04x    frame=  605 fps= 16 q=-1.0 size=   22016kB time=00:00:39.86 bitrate=4524.4kbits/s speed=1.04x    frame=  613 fps= 16 q=-1.0 size=   22528kB time=00:00:40.42 bitrate=4565.5kbits/s speed=1.04x    frame=  621 fps= 16 q=-1.0 size=   22784kB time=00:00:40.94 bitrate=4558.7kbits/s speed=1.04x    frame=  629 fps= 16 q=-1.0 size=   23040kB time=00:00:41.46 bitrate=4552.1kbits/s speed=1.04x    frame=  637 fps= 16 q=-1.0 size=   23296kB time=00:00:42.02 bitrate=4541.4kbits/s speed=1.04x    frame=  645 fps= 16 q=-1.0 size=   23552kB time=00:00:42.54 bitrate=4535.2kbits/s speed=1.04x    frame=  653 fps= 16 q=-1.0 size=   23808kB time=00:00:43.06 bitrate=4529.1kbits/s speed=1.04x    frame=  661 fps= 16 q=-1.0 size=   24064kB time=00:00:43.62 bitrate=4519.0kbits/s speed=1.04x    frame=  669 fps= 16 q=-1.0 size=   24320kB time=00:00:44.14 bitrate=4513.3kbits/s speed=1.04x    frame=  677 fps= 16 q=-1.0 size=   24576kB time=00:00:44.66 bitrate=4507.7kbits/s speed=1.04x    frame=  685 fps= 16 q=-1.0 size=   25088kB time=00:00:45.22 bitrate=4544.7kbits/s speed=1.03x    frame=  693 fps= 16 q=-1.0 size=   25344kB time=00:00:45.74 bitrate=4538.8kbits/s speed=1.03x    frame=  701 fps= 16 q=-1.0 size=   25600kB time=00:00:46.26 bitrate=4533.1kbits/s speed=1.03x    frame=  709 fps= 16 q=-1.0 size=   25856kB time=00:00:46.82 bitrate=4523.7kbits/s speed=1.03x    frame=  717 fps= 16 q=-1.0 size=   26112kB time=00:00:47.34 bitrate=4518.3kbits/s speed=1.03x    frame=  725 fps= 16 q=-1.0 size=   26368kB time=00:00:47.86 bitrate=4513.1kbits/s speed=1.03x    frame=  733 fps= 16 q=-1.0 size=   26624kB time=00:00:48.42 bitrate=4504.2kbits/s speed=1.03x    frame=  741 fps= 16 q=-1.0 size=   26880kB time=00:00:48.94 bitrate=4499.3kbits/s speed=1.03x    frame=  749 fps= 16 q=-1.0 size=   27392kB time=00:00:49.46 bitrate=4536.8kbits/s speed=1.03x    frame=  757 fps= 16 q=-1.0 size=   27648kB time=00:00:50.02 bitrate=4527.9kbits/s speed=1.03x    frame=  765 fps= 16 q=-1.0 size=   27904kB time=00:00:50.54 bitrate=4522.8kbits/s speed=1.03x    frame=  773 fps= 16 q=-1.0 size=   28160kB time=00:00:51.06 bitrate=4517.8kbits/s speed=1.03x    frame=  781 fps= 16 q=-1.0 size=   28416kB time=00:00:51.62 bitrate=4509.4kbits/s speed=1.03x    frame=  789 fps= 16 q=-1.0 size=   28672kB time=00:00:52.14 bitrate=4504.7kbits/s speed=1.03x    frame=  797 fps= 16 q=-1.0 size=   28928kB time=00:00:52.66 bitrate=4500.0kbits/s speed=1.03x    frame=  805 fps= 16 q=-1.0 size=   29184kB time=00:00:53.22 bitrate=4492.1kbits/s speed=1.03x    frame=  813 fps= 16 q=-1.0 size=   29696kB time=00:00:53.74 bitrate=4526.7kbits/s speed=1.03x    frame=  821 fps= 16 q=-1.0 size=   29952kB time=00:00:54.26 bitrate=4521.9kbits/s speed=1.03x    frame=  829 fps= 16 q=-1.0 size=   30208kB time=00:00:54.82 bitrate=4514.0kbits/s speed=1.03x    frame=  837 fps= 16 q=-1.0 size=   30464kB time=00:00:55.34 bitrate=4509.5kbits/s speed=1.03x    frame=  845 fps= 16 q=-1.0 size=   30720kB time=00:00:55.86 bitrate=4505.0kbits/s speed=1.03x    frame=  853 fps= 16 q=-1.0 size=   30976kB time=00:00:56.42 bitrate=4497.5kbits/s speed=1.03x    frame=  861 fps= 16 q=-1.0 size=   31232kB time=00:00:56.94 bitrate=4493.2kbits/s speed=1.03x    frame=  869 fps= 16 q=-1.0 size=   31488kB time=00:00:57.46 bitrate=4489.1kbits/s speed=1.03x    frame=  877 fps= 16 q=-1.0 size=   31744kB time=00:00:58.02 bitrate=4481.9kbits/s speed=1.03x    frame=  885 fps= 16 q=-1.0 size=   32256kB time=00:00:58.54 bitrate=4513.8kbits/s speed=1.03x    frame=  893 fps= 16 q=-1.0 size=   32512kB time=00:00:59.06 bitrate=4509.6kbits/s speed=1.03x    frame=  901 fps= 16 q=-1.0 size=   32768kB time=00:00:59.62 bitrate=4502.4kbits/s speed=1.03x    frame=  909 fps= 16 q=-1.0 size=   33024kB time=00:01:00.14 bitrate=4498.3kbits/s speed=1.03x    frame=  917 fps= 16 q=-1.0 size=   33280kB time=00:01:00.66 bitrate=4494.3kbits/s speed=1.03x    frame=  925 fps= 15 q=-1.0 size=   33536kB time=00:01:01.22 bitrate=4487.5kbits/s speed=1.03x    frame=  933 fps= 15 q=-1.0 size=   33792kB time=00:01:01.74 bitrate=4483.7kbits/s speed=1.03x    frame=  941 fps= 15 q=-1.0 size=   34048kB time=00:01:02.26 bitrate=4479.9kbits/s speed=1.03x    frame=  949 fps= 15 q=-1.0 size=   34560kB time=00:01:02.82 bitrate=4506.7kbits/s speed=1.02x    frame=  957 fps= 15 q=-1.0 size=   34816kB time=00:01:03.34 bitrate=4502.8kbits/s speed=1.02x    frame=  965 fps= 15 q=-1.0 size=   35072kB time=00:01:03.86 bitrate=4499.0kbits/s speed=1.02x    frame=  973 fps= 15 q=-1.0 size=   35328kB time=00:01:04.42 bitrate=4492.5kbits/s speed=1.02x    frame=  981 fps= 15 q=-1.0 size=   35584kB time=00:01:04.94 bitrate=4488.8kbits/s speed=1.02x    frame=  989 fps= 15 q=-1.0 size=   35840kB time=00:01:05.46 bitrate=4485.2kbits/s speed=1.02x    frame=  997 fps= 15 q=-1.0 size=   36096kB time=00:01:06.02 bitrate=4478.9kbits/s speed=1.02x    frame= 1005 fps= 15 q=-1.0 size=   36352kB time=00:01:06.54 bitrate=4475.4kbits/s speed=1.02x    frame= 1013 fps= 15 q=-1.0 size=   36864kB time=00:01:07.06 bitrate=4503.2kbits/s speed=1.02x    frame= 1021 fps= 15 q=-1.0 size=   37120kB time=00:01:07.62 bitrate=4497.0kbits/s speed=1.02x    frame= 1029 fps= 15 q=-1.0 size=   37376kB time=00:01:08.14 bitrate=4493.4kbits/s speed=1.02x    frame= 1037 fps= 15 q=-1.0 size=   37632kB time=00:01:08.65 bitrate=4490.0kbits/s speed=1.02x    frame= 1045 fps= 15 q=-1.0 size=   37888kB time=00:01:09.21 bitrate=4484.0kbits/s speed=1.02x    frame= 1053 fps= 15 q=-1.0 size=   38144kB time=00:01:09.73 bitrate=4480.6kbits/s speed=1.02x    frame= 1061 fps= 15 q=-1.0 size=   38400kB time=00:01:10.25 bitrate=4477.3kbits/s speed=1.02x    frame= 1069 fps= 15 q=-1.0 size=   38656kB time=00:01:10.81 bitrate=4471.5kbits/s speed=1.02x    frame= 1077 fps= 15 q=-1.0 size=   38912kB time=00:01:11.33 bitrate=4468.3kbits/s speed=1.02x    frame= 1085 fps= 15 q=-1.0 size=   39424kB time=00:01:11.85 bitrate=4494.3kbits/s speed=1.02x    frame= 1093 fps= 15 q=-1.0 size=   39680kB time=00:01:12.41 bitrate=4488.5kbits/s speed=1.02x    frame= 1101 fps= 15 q=-1.0 size=   39936kB time=00:01:12.93 bitrate=4485.3kbits/s speed=1.02x    frame= 1109 fps= 15 q=-1.0 size=   40192kB time=00:01:13.45 bitrate=4482.1kbits/s speed=1.02x    frame= 1117 fps= 15 q=-1.0 size=   40448kB time=00:01:14.01 bitrate=4476.5kbits/s speed=1.02x    frame= 1125 fps= 15 q=-1.0 size=   40704kB time=00:01:14.53 bitrate=4473.4kbits/s speed=1.02x    frame= 1133 fps= 15 q=-1.0 size=   40960kB time=00:01:15.05 bitrate=4470.4kbits/s speed=1.02x    frame= 1141 fps= 15 q=-1.0 size=   41216kB time=00:01:15.61 bitrate=4465.0kbits/s speed=1.02x    frame= 1149 fps= 15 q=-1.0 size=   41472kB time=00:01:16.13 bitrate=4462.0kbits/s speed=1.02x    frame= 1157 fps= 15 q=-1.0 size=   41984kB time=00:01:16.65 bitrate=4486.5kbits/s speed=1.02x    frame= 1165 fps= 15 q=-1.0 size=   42240kB time=00:01:17.21 bitrate=4481.1kbits/s speed=1.02x    frame= 1173 fps= 15 q=-1.0 size=   42496kB time=00:01:17.73 bitrate=4478.1kbits/s speed=1.02x    frame= 1181 fps= 15 q=-1.0 size=   42752kB time=00:01:18.25 bitrate=4475.2kbits/s speed=1.02x    frame= 1189 fps= 15 q=-1.0 size=   43008kB time=00:01:18.81 bitrate=4470.0kbits/s speed=1.02x    frame= 1197 fps= 15 q=-1.0 size=   43264kB time=00:01:19.33 bitrate=4467.2kbits/s speed=1.02x    frame= 1205 fps= 15 q=-1.0 size=   43520kB time=00:01:19.85 bitrate=4464.3kbits/s speed=1.02x    frame= 1213 fps= 15 q=-1.0 size=   43776kB time=00:01:20.41 bitrate=4459.3kbits/s speed=1.02x    frame= 1221 fps= 15 q=-1.0 size=   44032kB time=00:01:20.93 bitrate=4456.6kbits/s speed=1.02x    frame= 1229 fps= 15 q=-1.0 size=   44544kB time=00:01:21.45 bitrate=4479.6kbits/s speed=1.02x    frame= 1237 fps= 15 q=-1.0 size=   44800kB time=00:01:22.01 bitrate=4474.6kbits/s speed=1.02x    frame= 1245 fps= 15 q=-1.0 size=   45056kB time=00:01:22.53 bitrate=4471.8kbits/s speed=1.02x    frame= 1253 fps= 15 q=-1.0 size=   45312kB time=00:01:23.05 bitrate=4469.1kbits/s speed=1.02x    frame= 1261 fps= 15 q=-1.0 size=   45568kB time=00:01:23.61 bitrate=4464.2kbits/s speed=1.02x    frame= 1269 fps= 15 q=-1.0 size=   45824kB time=00:01:24.13 bitrate=4461.6kbits/s speed=1.02x    frame= 1277 fps= 15 q=-1.0 size=   46080kB time=00:01:24.65 bitrate=4458.9kbits/s speed=1.02x    frame= 1285 fps= 15 q=-1.0 size=   46336kB time=00:01:25.21 bitrate=4454.2kbits/s speed=1.02x    frame= 1293 fps= 15 q=-1.0 size=   46592kB time=00:01:25.73 bitrate=4451.7kbits/s speed=1.02x    frame= 1301 fps= 15 q=-1.0 size=   47104kB time=00:01:26.25 bitrate=4473.5kbits/s speed=1.02x    frame= 1309 fps= 15 q=-1.0 size=   47360kB time=00:01:26.81 bitrate=4468.8kbits/s speed=1.02x    frame= 1317 fps= 15 q=-1.0 size=   47616kB time=00:01:27.33 bitrate=4466.2kbits/s speed=1.02x    frame= 1325 fps= 15 q=-1.0 size=   47872kB time=00:01:27.85 bitrate=4463.6kbits/s speed=1.02x    frame= 1333 fps= 15 q=-1.0 size=   48128kB time=00:01:28.41 bitrate=4459.1kbits/s speed=1.02x    frame= 1341 fps= 15 q=-1.0 size=   48384kB time=00:01:28.93 bitrate=4456.6kbits/s speed=1.02x    frame= 1349 fps= 15 q=-1.0 size=   48640kB time=00:01:29.45 bitrate=4454.2kbits/s speed=1.02x    frame= 1357 fps= 15 q=-1.0 size=   48896kB time=00:01:30.01 bitrate=4449.8kbits/s speed=1.02x    frame= 1365 fps= 15 q=-1.0 size=   49408kB time=00:01:30.53 bitrate=4470.5kbits/s speed=1.02x    frame= 1373 fps= 15 q=-1.0 size=   49664kB time=00:01:31.05 bitrate=4468.0kbits/s speed=1.02x    frame= 1381 fps= 15 q=-1.0 size=   49920kB time=00:01:31.61 bitrate=4463.6kbits/s speed=1.02x    frame= 1389 fps= 15 q=-1.0 size=   50176kB time=00:01:32.13 bitrate=4461.2kbits/s speed=1.02x    frame= 1397 fps= 15 q=-1.0 size=   50432kB time=00:01:32.65 bitrate=4458.8kbits/s speed=1.02x    frame= 1405 fps= 15 q=-1.0 size=   50688kB time=00:01:33.21 bitrate=4454.5kbits/s speed=1.02x    frame= 1413 fps= 15 q=-1.0 size=   50944kB time=00:01:33.73 bitrate=4452.1kbits/s speed=1.02x    frame= 1421 fps= 15 q=-1.0 size=   51200kB time=00:01:34.25 bitrate=4449.8kbits/s speed=1.02x    frame= 1429 fps= 15 q=-1.0 size=   51712kB time=00:01:34.81 bitrate=4467.8kbits/s speed=1.02x    frame= 1437 fps= 15 q=-1.0 size=   51968kB time=00:01:35.33 bitrate=4465.4kbits/s speed=1.02x    frame= 1445 fps= 15 q=-1.0 size=   52224kB time=00:01:35.85 bitrate=4463.1kbits/s speed=1.02x    frame= 1453 fps= 15 q=-1.0 size=   52480kB time=00:01:36.41 bitrate=4458.9kbits/s speed=1.02x    frame= 1461 fps= 15 q=-1.0 size=   52736kB time=00:01:36.93 bitrate=4456.6kbits/s speed=1.02x    frame= 1469 fps= 15 q=-1.0 size=   52992kB time=00:01:37.45 bitrate=4454.4kbits/s speed=1.02x    frame= 1477 fps= 15 q=-1.0 size=   53248kB time=00:01:38.01 bitrate=4450.3kbits/s speed=1.02x    frame= 1485 fps= 15 q=-1.0 size=   53504kB time=00:01:38.53 bitrate=4448.1kbits/s speed=1.02x    frame= 1493 fps= 15 q=-1.0 size=   53760kB time=00:01:39.05 bitrate=4446.0kbits/s speed=1.02x    frame= 1501 fps= 15 q=-1.0 size=   54272kB time=00:01:39.61 bitrate=4463.1kbits/s speed=1.02x    frame= 1509 fps= 15 q=-1.0 size=   54528kB time=00:01:40.13 bitrate=4460.8kbits/s speed=1.02x    frame= 1517 fps= 15 q=-1.0 size=   54784kB time=00:01:40.65 bitrate=4458.6kbits/s speed=1.02x    frame= 1525 fps= 15 q=-1.0 size=   55040kB time=00:01:41.21 bitrate=4454.7kbits/s speed=1.02x    frame= 1533 fps= 15 q=-1.0 size=   55296kB time=00:01:41.73 bitrate=4452.5kbits/s speed=1.02x    frame= 1541 fps= 15 q=-1.0 size=   55552kB time=00:01:42.25 bitrate=4450.4kbits/s speed=1.02x    frame= 1549 fps= 15 q=-1.0 size=   55808kB time=00:01:42.81 bitrate=4446.6kbits/s speed=1.02x    frame= 1557 fps= 15 q=-1.0 size=   56064kB time=00:01:43.33 bitrate=4444.5kbits/s speed=1.02x    frame= 1565 fps= 15 q=-1.0 size=   56576kB time=00:01:43.85 bitrate=4462.6kbits/s speed=1.02x    frame= 1573 fps= 15 q=-1.0 size=   56832kB time=00:01:44.41 bitrate=4458.8kbits/s speed=1.02x    frame= 1581 fps= 15 q=-1.0 size=   57088kB time=00:01:44.93 bitrate=4456.6kbits/s speed=1.02x    frame= 1589 fps= 15 q=-1.0 size=   57344kB time=00:01:45.45 bitrate=4454.6kbits/s speed=1.02x    frame= 1597 fps= 15 q=-1.0 size=   57600kB time=00:01:46.01 bitrate=4450.8kbits/s speed=1.01x    frame= 1605 fps= 15 q=-1.0 size=   57856kB time=00:01:46.53 bitrate=4448.8kbits/s speed=1.01x    frame= 1613 fps= 15 q=-1.0 size=   58112kB time=00:01:47.05 bitrate=4446.7kbits/s speed=1.01x    frame= 1621 fps= 15 q=-1.0 size=   58368kB time=00:01:47.61 bitrate=4443.1kbits/s speed=1.01x    frame= 1629 fps= 15 q=-1.0 size=   58624kB time=00:01:48.13 bitrate=4441.1kbits/s speed=1.01x    frame= 1637 fps= 15 q=-1.0 size=   59136kB time=00:01:48.65 bitrate=4458.5kbits/s speed=1.01x    frame= 1645 fps= 15 q=-1.0 size=   59392kB time=00:01:49.21 bitrate=4454.9kbits/s speed=1.01x    frame= 1653 fps= 15 q=-1.0 size=   59648kB time=00:01:49.73 bitrate=4452.9kbits/s speed=1.01x    frame= 1661 fps= 15 q=-1.0 size=   59904kB time=00:01:50.25 bitrate=4450.9kbits/s speed=1.01x    frame= 1669 fps= 15 q=-1.0 size=   60160kB time=00:01:50.81 bitrate=4447.3kbits/s speed=1.01x    frame= 1677 fps= 15 q=-1.0 size=   60416kB time=00:01:51.33 bitrate=4445.4kbits/s speed=1.01x    frame= 1685 fps= 15 q=-1.0 size=   60672kB time=00:01:51.85 bitrate=4443.5kbits/s speed=1.01x    frame= 1693 fps= 15 q=-1.0 size=   61184kB time=00:01:52.41 bitrate=4458.6kbits/s speed=1.01x    frame= 1701 fps= 15 q=-1.0 size=   61440kB time=00:01:52.93 bitrate=4456.7kbits/s speed=1.01x    frame= 1709 fps= 15 q=-1.0 size=   61696kB time=00:01:53.45 bitrate=4454.7kbits/s speed=1.01x    frame= 1717 fps= 15 q=-1.0 size=   61952kB time=00:01:54.01 bitrate=4451.2kbits/s speed=1.01x    frame= 1725 fps= 15 q=-1.0 size=   62208kB time=00:01:54.53 bitrate=4449.3kbits/s speed=1.01x    frame= 1733 fps= 15 q=-1.0 size=   62464kB time=00:01:55.05 bitrate=4447.5kbits/s speed=1.01x    frame= 1741 fps= 15 q=-1.0 size=   62720kB time=00:01:55.61 bitrate=4444.1kbits/s speed=1.01x    frame= 1749 fps= 15 q=-1.0 size=   62976kB time=00:01:56.13 bitrate=4442.2kbits/s speed=1.01x    frame= 1757 fps= 15 q=-1.0 size=   63488kB time=00:01:56.65 bitrate=4458.4kbits/s speed=1.01x    frame= 1765 fps= 15 q=-1.0 size=   63744kB time=00:01:57.21 bitrate=4455.0kbits/s speed=1.01x    frame= 1773 fps= 15 q=-1.0 size=   64000kB time=00:01:57.73 bitrate=4453.1kbits/s speed=1.01x    frame= 1781 fps= 15 q=-1.0 size=   64256kB time=00:01:58.25 bitrate=4451.2kbits/s speed=1.01x    frame= 1789 fps= 15 q=-1.0 size=   64512kB time=00:01:58.81 bitrate=4448.0kbits/s speed=1.01x    frame= 1797 fps= 15 q=-1.0 size=   64768kB time=00:01:59.33 bitrate=4446.1kbits/s speed=1.01x    frame= 1805 fps= 15 q=-1.0 size=   65024kB time=00:01:59.85 bitrate=4444.4kbits/s speed=1.01x    frame= 1813 fps= 15 q=-1.0 size=   65536kB time=00:02:00.41 bitrate=4458.5kbits/s speed=1.01x    frame= 1821 fps= 15 q=-1.0 size=   65792kB time=00:02:00.93 bitrate=4456.7kbits/s speed=1.01x    frame= 1829 fps= 15 q=-1.0 size=   66048kB time=00:02:01.45 bitrate=4454.9kbits/s speed=1.01x    frame= 1837 fps= 15 q=-1.0 size=   66304kB time=00:02:02.01 bitrate=4451.6kbits/s speed=1.01x    frame= 1845 fps= 15 q=-1.0 size=   66560kB time=00:02:02.53 bitrate=4449.8kbits/s speed=1.01x    frame= 1853 fps= 15 q=-1.0 size=   66816kB time=00:02:03.05 bitrate=4448.1kbits/s speed=1.01x    frame= 1861 fps= 15 q=-1.0 size=   67072kB time=00:02:03.61 bitrate=4444.9kbits/s speed=1.01x    frame= 1869 fps= 15 q=-1.0 size=   67328kB time=00:02:04.13 bitrate=4443.2kbits/s speed=1.01x    frame= 1877 fps= 15 q=-1.0 size=   67840kB time=00:02:04.65 bitrate=4458.3kbits/s speed=1.01x    frame= 1885 fps= 15 q=-1.0 size=   68096kB time=00:02:05.21 bitrate=4455.1kbits/s speed=1.01x    frame= 1893 fps= 15 q=-1.0 size=   68352kB time=00:02:05.73 bitrate=4453.3kbits/s speed=1.01x    frame= 1901 fps= 15 q=-1.0 size=   68608kB time=00:02:06.25 bitrate=4451.6kbits/s speed=1.01x    frame= 1909 fps= 15 q=-1.0 size=   68864kB time=00:02:06.81 bitrate=4448.5kbits/s speed=1.01x    frame= 1917 fps= 15 q=-1.0 size=   69120kB time=00:02:07.33 bitrate=4446.8kbits/s speed=1.01x    frame= 1925 fps= 15 q=-1.0 size=   69376kB time=00:02:07.85 bitrate=4445.1kbits/s speed=1.01x    frame= 1933 fps= 15 q=-1.0 size=   69632kB time=00:02:08.41 bitrate=4442.1kbits/s speed=1.01x    frame= 1941 fps= 15 q=-1.0 size=   70144kB time=00:02:08.93 bitrate=4456.7kbits/s speed=1.01x    frame= 1949 fps= 15 q=-1.0 size=   70400kB time=00:02:09.45 bitrate=4455.0kbits/s speed=1.01x    frame= 1957 fps= 15 q=-1.0 size=   70656kB time=00:02:10.01 bitrate=4451.9kbits/s speed=1.01x    frame= 1965 fps= 15 q=-1.0 size=   70912kB time=00:02:10.53 bitrate=4450.3kbits/s speed=1.01x    frame= 1973 fps= 15 q=-1.0 size=   71168kB time=00:02:11.05 bitrate=4448.6kbits/s speed=1.01x    frame= 1981 fps= 15 q=-1.0 size=   71424kB time=00:02:11.61 bitrate=4445.6kbits/s speed=1.01x    frame= 1989 fps= 15 q=-1.0 size=   71680kB time=00:02:12.13 bitrate=4444.0kbits/s speed=1.01x    frame= 1997 fps= 15 q=-1.0 size=   72192kB time=00:02:12.65 bitrate=4458.2kbits/s speed=1.01x    frame= 2005 fps= 15 q=-1.0 size=   72448kB time=00:02:13.21 bitrate=4455.2kbits/s speed=1.01x    frame= 2013 fps= 15 q=-1.0 size=   72704kB time=00:02:13.73 bitrate=4453.6kbits/s speed=1.01x    frame= 2021 fps= 15 q=-1.0 size=   72960kB time=00:02:14.25 bitrate=4451.9kbits/s speed=1.01x    frame= 2029 fps= 15 q=-1.0 size=   73216kB time=00:02:14.81 bitrate=4449.0kbits/s speed=1.01x    frame= 2037 fps= 15 q=-1.0 size=   73472kB time=00:02:15.33 bitrate=4447.4kbits/s speed=1.01x    frame= 2045 fps= 15 q=-1.0 size=   73728kB time=00:02:15.85 bitrate=4445.8kbits/s speed=1.01x    frame= 2053 fps= 15 q=-1.0 size=   73984kB time=00:02:16.41 bitrate=4442.9kbits/s speed=1.01x    frame= 2061 fps= 15 q=-1.0 size=   74496kB time=00:02:16.93 bitrate=4456.7kbits/s speed=1.01x    frame= 2069 fps= 15 q=-1.0 size=   74752kB time=00:02:17.45 bitrate=4455.1kbits/s speed=1.01x    frame= 2077 fps= 15 q=-1.0 size=   75008kB time=00:02:18.01 bitrate=4452.2kbits/s speed=1.01x    frame= 2085 fps= 15 q=-1.0 size=   75264kB time=00:02:18.53 bitrate=4450.7kbits/s speed=1.01x    frame= 2093 fps= 15 q=-1.0 size=   75520kB time=00:02:19.05 bitrate=4449.1kbits/s speed=1.01x    frame= 2101 fps= 15 q=-1.0 size=   75776kB time=00:02:19.61 bitrate=4446.3kbits/s speed=1.01x    frame= 2109 fps= 15 q=-1.0 size=   76032kB time=00:02:20.13 bitrate=4444.7kbits/s speed=1.01x    frame= 2117 fps= 15 q=-1.0 size=   76288kB time=00:02:20.65 bitrate=4443.2kbits/s speed=1.01x    frame= 2125 fps= 15 q=-1.0 size=   76800kB time=00:02:21.21 bitrate=4455.3kbits/s speed=1.01x    frame= 2133 fps= 15 q=-1.0 size=   77056kB time=00:02:21.73 bitrate=4453.8kbits/s speed=1.01x    frame= 2141 fps= 15 q=-1.0 size=   77312kB time=00:02:22.25 bitrate=4452.2kbits/s speed=1.01x    frame= 2149 fps= 15 q=-1.0 size=   77568kB time=00:02:22.81 bitrate=4449.4kbits/s speed=1.01x    frame= 2157 fps= 15 q=-1.0 size=   77824kB time=00:02:23.33 bitrate=4447.9kbits/s speed=1.01x    frame= 2165 fps= 15 q=-1.0 size=   78080kB time=00:02:23.85 bitrate=4446.4kbits/s speed=1.01x    frame= 2173 fps= 15 q=-1.0 size=   78336kB time=00:02:24.41 bitrate=4443.7kbits/s speed=1.01x    frame= 2181 fps= 15 q=-1.0 size=   78592kB time=00:02:24.93 bitrate=4442.2kbits/s speed=1.01x    frame= 2189 fps= 15 q=-1.0 size=   78848kB time=00:02:25.45 bitrate=4440.8kbits/s speed=1.01x    frame= 2197 fps= 15 q=-1.0 size=   79360kB time=00:02:26.01 bitrate=4452.5kbits/s speed=1.01x    frame= 2205 fps= 15 q=-1.0 size=   79616kB time=00:02:26.53 bitrate=4451.0kbits/s speed=1.01x    frame= 2213 fps= 15 q=-1.0 size=   79872kB time=00:02:27.05 bitrate=4449.5kbits/s speed=1.01x    frame= 2221 fps= 15 q=-1.0 size=   80128kB time=00:02:27.61 bitrate=4446.8kbits/s speed=1.01x    frame= 2229 fps= 15 q=-1.0 size=   80384kB time=00:02:28.13 bitrate=4445.4kbits/s speed=1.01x    frame= 2237 fps= 15 q=-1.0 size=   80640kB time=00:02:28.65 bitrate=4444.0kbits/s speed=1.01x    frame= 2245 fps= 15 q=-1.0 size=   80896kB time=00:02:29.21 bitrate=4441.3kbits/s speed=1.01x    frame= 2253 fps= 15 q=-1.0 size=   81152kB time=00:02:29.73 bitrate=4439.9kbits/s speed=1.01x    frame= 2261 fps= 15 q=-1.0 size=   81664kB time=00:02:30.25 bitrate=4452.5kbits/s speed=1.01x    frame= 2269 fps= 15 q=-1.0 size=   81920kB time=00:02:30.81 bitrate=4449.8kbits/s speed=1.01x    frame= 2277 fps= 15 q=-1.0 size=   82176kB time=00:02:31.33 bitrate=4448.4kbits/s speed=1.01x    frame= 2285 fps= 15 q=-1.0 size=   82432kB time=00:02:31.85 bitrate=4447.0kbits/s speed=1.01x    frame= 2293 fps= 15 q=-1.0 size=   82688kB time=00:02:32.41 bitrate=4444.4kbits/s speed=1.01x    frame= 2301 fps= 15 q=-1.0 size=   82944kB time=00:02:32.93 bitrate=4443.0kbits/s speed=1.01x    frame= 2309 fps= 15 q=-1.0 size=   83200kB time=00:02:33.45 bitrate=4441.6kbits/s speed=1.01x    frame= 2317 fps= 15 q=-1.0 size=   83456kB time=00:02:34.01 bitrate=4439.1kbits/s speed=1.01x    frame= 2325 fps= 15 q=-1.0 size=   83968kB time=00:02:34.53 bitrate=4451.3kbits/s speed=1.01x    frame= 2333 fps= 15 q=-1.0 size=   84224kB time=00:02:35.05 bitrate=4449.9kbits/s speed=1.01x    frame= 2341 fps= 15 q=-1.0 size=   84480kB time=00:02:35.61 bitrate=4447.4kbits/s speed=1.01x    frame= 2349 fps= 15 q=-1.0 size=   84736kB time=00:02:36.13 bitrate=4446.0kbits/s speed=1.01x    frame= 2357 fps= 15 q=-1.0 size=   84992kB time=00:02:36.65 bitrate=4444.6kbits/s speed=1.01x    frame= 2365 fps= 15 q=-1.0 size=   85248kB time=00:02:37.21 bitrate=4442.1kbits/s speed=1.01x    frame= 2373 fps= 15 q=-1.0 size=   85504kB time=00:02:37.73 bitrate=4440.8kbits/s speed=1.01x    frame= 2381 fps= 15 q=-1.0 size=   85760kB time=00:02:38.25 bitrate=4439.4kbits/s speed=1.01x    frame= 2389 fps= 15 q=-1.0 size=   86272kB time=00:02:38.81 bitrate=4450.2kbits/s speed=1.01x    frame= 2397 fps= 15 q=-1.0 size=   86528kB time=00:02:39.33 bitrate=4448.8kbits/s speed=1.01x    frame= 2405 fps= 15 q=-1.0 size=   86784kB time=00:02:39.85 bitrate=4447.5kbits/s speed=1.01x    frame= 2413 fps= 15 q=-1.0 size=   87040kB time=00:02:40.41 bitrate=4445.0kbits/s speed=1.01x    frame= 2421 fps= 15 q=-1.0 size=   87552kB time=00:02:40.93 bitrate=4456.7kbits/s speed=1.01x    frame= 2429 fps= 15 q=-1.0 size=   87808kB time=00:02:41.45 bitrate=4455.4kbits/s speed=1.01x    frame= 2437 fps= 15 q=-1.0 size=   88064kB time=00:02:42.01 bitrate=4452.9kbits/s speed=1.01x    frame= 2445 fps= 15 q=-1.0 size=   88320kB time=00:02:42.53 bitrate=4451.6kbits/s speed=1.01x    frame= 2453 fps= 15 q=-1.0 size=   88576kB time=00:02:43.05 bitrate=4450.2kbits/s speed=1.01x    frame= 2461 fps= 15 q=-1.0 size=   89088kB time=00:02:43.61 bitrate=4460.6kbits/s speed=1.01x    frame= 2469 fps= 15 q=-1.0 size=   89344kB time=00:02:44.13 bitrate=4459.3kbits/s speed=1.01x    frame= 2477 fps= 15 q=-1.0 size=   89600kB time=00:02:44.65 bitrate=4457.9kbits/s speed=1.01x    frame= 2485 fps= 15 q=-1.0 size=   89856kB time=00:02:45.21 bitrate=4455.5kbits/s speed=1.01x    frame= 2493 fps= 15 q=-1.0 size=   90112kB time=00:02:45.73 bitrate=4454.2kbits/s speed=1.01x    frame= 2501 fps= 15 q=-1.0 size=   90368kB time=00:02:46.25 bitrate=4452.9kbits/s speed=1.01x    frame= 2509 fps= 15 q=-1.0 size=   90880kB time=00:02:46.81 bitrate=4463.1kbits/s speed=1.01x    frame= 2517 fps= 15 q=-1.0 size=   91136kB time=00:02:47.33 bitrate=4461.7kbits/s speed=1.01x    frame= 2525 fps= 15 q=-1.0 size=   91392kB time=00:02:47.85 bitrate=4460.4kbits/s speed=1.01x    frame= 2533 fps= 15 q=-1.0 size=   91648kB time=00:02:48.41 bitrate=4458.0kbits/s speed=1.01x    frame= 2541 fps= 15 q=-1.0 size=   91904kB time=00:02:48.92 bitrate=4456.8kbits/s speed=1.01x    frame= 2549 fps= 15 q=-1.0 size=   92160kB time=00:02:49.44 bitrate=4455.5kbits/s speed=1.01x    frame= 2557 fps= 15 q=-1.0 size=   92672kB time=00:02:50.00 bitrate=4465.4kbits/s speed=1.01x    frame= 2565 fps= 15 q=-1.0 size=   92928kB time=00:02:50.52 bitrate=4464.1kbits/s speed=1.01x    frame= 2573 fps= 15 q=-1.0 size=   93184kB time=00:02:51.04 bitrate=4462.8kbits/s speed=1.01x    frame= 2581 fps= 15 q=-1.0 size=   93440kB time=00:02:51.60 bitrate=4460.5kbits/s speed=1.01x    frame= 2589 fps= 15 q=-1.0 size=   93696kB time=00:02:52.12 bitrate=4459.2kbits/s speed=1.01x    frame= 2597 fps= 15 q=-1.0 size=   93952kB time=00:02:52.64 bitrate=4457.9kbits/s speed=1.01x    frame= 2605 fps= 15 q=-1.0 size=   94464kB time=00:02:53.20 bitrate=4467.7kbits/s speed=1.01x    frame= 2613 fps= 15 q=-1.0 size=   94720kB time=00:02:53.72 bitrate=4466.4kbits/s speed=1.01x    frame= 2621 fps= 15 q=-1.0 size=   94976kB time=00:02:54.24 bitrate=4465.1kbits/s speed=1.01x    frame= 2629 fps= 15 q=-1.0 size=   95232kB time=00:02:54.80 bitrate=4462.8kbits/s speed=1.01x    frame= 2637 fps= 15 q=-1.0 size=   95488kB time=00:02:55.32 bitrate=4461.5kbits/s speed=1.01x    frame= 2645 fps= 15 q=-1.0 size=   96000kB time=00:02:55.84 bitrate=4472.2kbits/s speed=1.01x    frame= 2653 fps= 15 q=-1.0 size=   96256kB time=00:02:56.40 bitrate=4469.9kbits/s speed=1.01x    frame= 2661 fps= 15 q=-1.0 size=   96512kB time=00:02:56.92 bitrate=4468.6kbits/s speed=1.01x    frame= 2669 fps= 15 q=-1.0 size=   96768kB time=00:02:57.44 bitrate=4467.3kbits/s speed=1.01x    frame= 2677 fps= 15 q=-1.0 size=   97024kB time=00:02:58.00 bitrate=4465.0kbits/s speed=1.01x    frame= 2685 fps= 15 q=-1.0 size=   97280kB time=00:02:58.52 bitrate=4463.8kbits/s speed=1.01x    frame= 2693 fps= 15 q=-1.0 size=   97792kB time=00:02:59.04 bitrate=4474.3kbits/s speed=1.01x    frame= 2701 fps= 15 q=-1.0 size=   98048kB time=00:02:59.60 bitrate=4472.0kbits/s speed=1.01x    frame= 2709 fps= 15 q=-1.0 size=   98304kB time=00:03:00.12 bitrate=4470.7kbits/s speed=1.01x    frame= 2717 fps= 15 q=-1.0 size=   98560kB time=00:03:00.64 bitrate=4469.5kbits/s speed=1.01x    frame= 2725 fps= 15 q=-1.0 size=   98816kB time=00:03:01.20 bitrate=4467.2kbits/s speed=1.01x    frame= 2733 fps= 15 q=-1.0 size=   99072kB time=00:03:01.72 bitrate=4466.0kbits/s speed=1.01x    frame= 2741 fps= 15 q=-1.0 size=   99584kB time=00:03:02.24 bitrate=4476.3kbits/s speed=1.01x    frame= 2749 fps= 15 q=-1.0 size=   99840kB time=00:03:02.80 bitrate=4474.0kbits/s speed=1.01x    frame= 2757 fps= 15 q=-1.0 size=  100096kB time=00:03:03.32 bitrate=4472.8kbits/s speed=1.01x    frame= 2765 fps= 15 q=-1.0 size=  100352kB time=00:03:03.84 bitrate=4471.5kbits/s speed=1.01x    frame= 2773 fps= 15 q=-1.0 size=  100608kB time=00:03:04.40 bitrate=4469.3kbits/s speed=1.01x    frame= 2781 fps= 15 q=-1.0 size=  101120kB time=00:03:04.92 bitrate=4479.4kbits/s speed=1.01x    frame= 2789 fps= 15 q=-1.0 size=  101376kB time=00:03:05.44 bitrate=4478.2kbits/s speed=1.01x    frame= 2797 fps= 15 q=-1.0 size=  101632kB time=00:03:06.00 bitrate=4476.0kbits/s speed=1.01x    frame= 2805 fps= 15 q=-1.0 size=  101888kB time=00:03:06.52 bitrate=4474.7kbits/s speed=1.01x    frame= 2813 fps= 15 q=-1.0 size=  102144kB time=00:03:07.04 bitrate=4473.5kbits/s speed=1.01x    frame= 2821 fps= 15 q=-1.0 size=  102656kB time=00:03:07.60 bitrate=4482.5kbits/s speed=1.01x    frame= 2829 fps= 15 q=-1.0 size=  102912kB time=00:03:08.12 bitrate=4481.3kbits/s speed=1.01x    frame= 2837 fps= 15 q=-1.0 size=  103168kB time=00:03:08.64 bitrate=4480.1kbits/s speed=1.01x    frame= 2845 fps= 15 q=-1.0 size=  103424kB time=00:03:09.20 bitrate=4477.9kbits/s speed=1.01x    frame= 2853 fps= 15 q=-1.0 size=  103680kB time=00:03:09.72 bitrate=4476.7kbits/s speed=1.01x    frame= 2861 fps= 15 q=-1.0 size=  103936kB time=00:03:10.24 bitrate=4475.5kbits/s speed=1.01x    frame= 2869 fps= 15 q=-1.0 size=  104192kB time=00:03:10.80 bitrate=4473.3kbits/s speed=1.01x    frame= 2877 fps= 15 q=-1.0 size=  104448kB time=00:03:11.32 bitrate=4472.1kbits/s speed=1.01x    frame= 2885 fps= 15 q=-1.0 size=  104704kB time=00:03:11.84 bitrate=4470.9kbits/s speed=1.01x    frame= 2893 fps= 15 q=-1.0 size=  105216kB time=00:03:12.40 bitrate=4479.7kbits/s speed=1.01x    frame= 2901 fps= 15 q=-1.0 size=  105472kB time=00:03:12.92 bitrate=4478.5kbits/s speed=1.01x    frame= 2909 fps= 15 q=-1.0 size=  105728kB time=00:03:13.44 bitrate=4477.3kbits/s speed=1.01x    frame= 2917 fps= 15 q=-1.0 size=  105984kB time=00:03:14.00 bitrate=4475.2kbits/s speed=1.01x    frame= 2925 fps= 15 q=-1.0 size=  106240kB time=00:03:14.52 bitrate=4474.0kbits/s speed=1.01x    frame= 2933 fps= 15 q=-1.0 size=  106496kB time=00:03:15.04 bitrate=4472.8kbits/s speed=1.01x    frame= 2941 fps= 15 q=-1.0 size=  106752kB time=00:03:15.60 bitrate=4470.7kbits/s speed=1.01x    frame= 2949 fps= 15 q=-1.0 size=  107008kB time=00:03:16.12 bitrate=4469.6kbits/s speed=1.01x    frame= 2957 fps= 15 q=-1.0 size=  107264kB time=00:03:16.64 bitrate=4468.4kbits/s speed=1.01x    frame= 2965 fps= 15 q=-1.0 size=  107776kB time=00:03:17.20 bitrate=4477.0kbits/s speed=1.01x    frame= 2973 fps= 15 q=-1.0 size=  108032kB time=00:03:17.72 bitrate=4475.8kbits/s speed=1.01x    frame= 2981 fps= 15 q=-1.0 size=  108288kB time=00:03:18.24 bitrate=4474.7kbits/s speed=1.01x    frame= 2989 fps= 15 q=-1.0 size=  108544kB time=00:03:18.80 bitrate=4472.7kbits/s speed=1.01x    frame= 2997 fps= 15 q=-1.0 size=  108800kB time=00:03:19.32 bitrate=4471.5kbits/s speed=1.01x    frame= 3005 fps= 15 q=-1.0 size=  109056kB time=00:03:19.84 bitrate=4470.4kbits/s speed=1.01x    frame= 3013 fps= 15 q=-1.0 size=  109312kB time=00:03:20.40 bitrate=4468.3kbits/s speed=1.01x    frame= 3021 fps= 15 q=-1.0 size=  109568kB time=00:03:20.92 bitrate=4467.2kbits/s speed=1.01x    frame= 3029 fps= 15 q=-1.0 size=  109824kB time=00:03:21.44 bitrate=4466.1kbits/s speed=1.01x    frame= 3037 fps= 15 q=-1.0 size=  110080kB time=00:03:22.00 bitrate=4464.1kbits/s speed=1.01x    frame= 3045 fps= 15 q=-1.0 size=  110592kB time=00:03:22.52 bitrate=4473.3kbits/s speed=1.01x    frame= 3053 fps= 15 q=-1.0 size=  110848kB time=00:03:23.04 bitrate=4472.2kbits/s speed=1.01x    frame= 3061 fps= 15 q=-1.0 size=  111104kB time=00:03:23.60 bitrate=4470.2kbits/s speed=1.01x    frame= 3069 fps= 15 q=-1.0 size=  111360kB time=00:03:24.12 bitrate=4469.1kbits/s speed=1.01x    frame= 3077 fps= 15 q=-1.0 size=  111616kB time=00:03:24.64 bitrate=4468.0kbits/s speed=1.01x    frame= 3085 fps= 15 q=-1.0 size=  111872kB time=00:03:25.20 bitrate=4466.0kbits/s speed=1.01x    frame= 3093 fps= 15 q=-1.0 size=  112128kB time=00:03:25.72 bitrate=4464.9kbits/s speed=1.01x    frame= 3101 fps= 15 q=-1.0 size=  112640kB time=00:03:26.24 bitrate=4474.0kbits/s speed=1.01x    frame= 3109 fps= 15 q=-1.0 size=  112896kB time=00:03:26.80 bitrate=4472.0kbits/s speed=1.01x    frame= 3117 fps= 15 q=-1.0 size=  113152kB time=00:03:27.32 bitrate=4470.9kbits/s speed=1.01x    frame= 3125 fps= 15 q=-1.0 size=  113408kB time=00:03:27.84 bitrate=4469.8kbits/s speed=1.01x    frame= 3133 fps= 15 q=-1.0 size=  113664kB time=00:03:28.40 bitrate=4467.9kbits/s speed=1.01x    frame= 3141 fps= 15 q=-1.0 size=  113920kB time=00:03:28.92 bitrate=4466.8kbits/s speed=1.01x    frame= 3149 fps= 15 q=-1.0 size=  114176kB time=00:03:29.44 bitrate=4465.7kbits/s speed=1.01x    frame= 3157 fps= 15 q=-1.0 size=  114432kB time=00:03:30.00 bitrate=4463.8kbits/s speed=1.01x    frame= 3165 fps= 15 q=-1.0 size=  114944kB time=00:03:30.52 bitrate=4472.7kbits/s speed=1.01x    frame= 3173 fps= 15 q=-1.0 size=  115200kB time=00:03:31.04 bitrate=4471.6kbits/s speed=1.01x    frame= 3181 fps= 15 q=-1.0 size=  115456kB time=00:03:31.60 bitrate=4469.7kbits/s speed=1.01x    frame= 3189 fps= 15 q=-1.0 size=  115968kB time=00:03:32.12 bitrate=4478.5kbits/s speed=1.01x    frame= 3197 fps= 15 q=-1.0 size=  116224kB time=00:03:32.64 bitrate=4477.4kbits/s speed=1.01x    frame= 3205 fps= 15 q=-1.0 size=  116480kB time=00:03:33.20 bitrate=4475.5kbits/s speed=1.01x    frame= 3213 fps= 15 q=-1.0 size=  116736kB time=00:03:33.72 bitrate=4474.4kbits/s speed=1.01x    frame= 3221 fps= 15 q=-1.0 size=  116992kB time=00:03:34.24 bitrate=4473.4kbits/s speed=1.01x    frame= 3229 fps= 15 q=-1.0 size=  117248kB time=00:03:34.80 bitrate=4471.5kbits/s speed=1.01x    frame= 3237 fps= 15 q=-1.0 size=  117504kB time=00:03:35.32 bitrate=4470.4kbits/s speed=1.01x    frame= 3245 fps= 15 q=-1.0 size=  118016kB time=00:03:35.84 bitrate=4479.1kbits/s speed=1.01x    frame= 3253 fps= 15 q=-1.0 size=  118272kB time=00:03:36.40 bitrate=4477.2kbits/s speed=1.01x    frame= 3261 fps= 15 q=-1.0 size=  118528kB time=00:03:36.92 bitrate=4476.1kbits/s speed=1.01x    frame= 3269 fps= 15 q=-1.0 size=  118784kB time=00:03:37.44 bitrate=4475.0kbits/s speed=1.01x    frame= 3277 fps= 15 q=-1.0 size=  119040kB time=00:03:38.00 bitrate=4473.2kbits/s speed=1.01x    frame= 3285 fps= 15 q=-1.0 size=  119296kB time=00:03:38.52 bitrate=4472.1kbits/s speed=1.01x    frame= 3293 fps= 15 q=-1.0 size=  119552kB time=00:03:39.04 bitrate=4471.1kbits/s speed=1.01x    frame= 3301 fps= 15 q=-1.0 size=  119808kB time=00:03:39.60 bitrate=4469.2kbits/s speed=1.01x    frame= 3309 fps= 15 q=-1.0 size=  120320kB time=00:03:40.12 bitrate=4477.7kbits/s speed=1.01x    frame= 3317 fps= 15 q=-1.0 size=  120576kB time=00:03:40.64 bitrate=4476.7kbits/s speed=1.01x    frame= 3325 fps= 15 q=-1.0 size=  120832kB time=00:03:41.20 bitrate=4474.8kbits/s speed=1.01x    frame= 3333 fps= 15 q=-1.0 size=  121088kB time=00:03:41.72 bitrate=4473.8kbits/s speed=1.01x    frame= 3341 fps= 15 q=-1.0 size=  121344kB time=00:03:42.24 bitrate=4472.8kbits/s speed=1.01x    frame= 3349 fps= 15 q=-1.0 size=  121600kB time=00:03:42.80 bitrate=4470.9kbits/s speed=1.01x    frame= 3357 fps= 15 q=-1.0 size=  121856kB time=00:03:43.32 bitrate=4469.9kbits/s speed=1.01x    frame= 3365 fps= 15 q=-1.0 size=  122112kB time=00:03:43.84 bitrate=4468.9kbits/s speed=1.01x    frame= 3373 fps= 15 q=-1.0 size=  122624kB time=00:03:44.40 bitrate=4476.4kbits/s speed=1.01x    frame= 3381 fps= 15 q=-1.0 size=  122880kB time=00:03:44.92 bitrate=4475.4kbits/s speed=1.01x    frame= 3389 fps= 15 q=-1.0 size=  123136kB time=00:03:45.44 bitrate=4474.4kbits/s speed=1.01x    frame= 3397 fps= 15 q=-1.0 size=  123392kB time=00:03:46.00 bitrate=4472.6kbits/s speed=1.01x    frame= 3405 fps= 15 q=-1.0 size=  123648kB time=00:03:46.52 bitrate=4471.6kbits/s speed=1.01x    frame= 3413 fps= 15 q=-1.0 size=  123904kB time=00:03:47.04 bitrate=4470.6kbits/s speed=1.01x    frame= 3421 fps= 15 q=-1.0 size=  124160kB time=00:03:47.60 bitrate=4468.8kbits/s speed=1.01x    frame= 3429 fps= 15 q=-1.0 size=  124416kB time=00:03:48.12 bitrate=4467.8kbits/s speed=1.01x    frame= 3437 fps= 15 q=-1.0 size=  124928kB time=00:03:48.64 bitrate=4476.0kbits/s speed=1.01x    frame= 3445 fps= 15 q=-1.0 size=  125184kB time=00:03:49.20 bitrate=4474.2kbits/s speed=1.01x    frame= 3453 fps= 15 q=-1.0 size=  125440kB time=00:03:49.72 bitrate=4473.2kbits/s speed=1.01x    frame= 3461 fps= 15 q=-1.0 size=  125696kB time=00:03:50.24 bitrate=4472.2kbits/s speed=1.01x    frame= 3469 fps= 15 q=-1.0 size=  125952kB time=00:03:50.80 bitrate=4470.5kbits/s speed=1.01x    frame= 3477 fps= 15 q=-1.0 size=  126208kB time=00:03:51.32 bitrate=4469.5kbits/s speed=1.01x    frame= 3485 fps= 15 q=-1.0 size=  126720kB time=00:03:51.84 bitrate=4477.5kbits/s speed=1.01x    frame= 3493 fps= 15 q=-1.0 size=  126976kB time=00:03:52.40 bitrate=4475.8kbits/s speed=1.01x    frame= 3501 fps= 15 q=-1.0 size=  127232kB time=00:03:52.92 bitrate=4474.8kbits/s speed=1.01x    frame= 3509 fps= 15 q=-1.0 size=  127488kB time=00:03:53.44 bitrate=4473.8kbits/s speed=1.01x    frame= 3517 fps= 15 q=-1.0 size=  127744kB time=00:03:54.00 bitrate=4472.1kbits/s speed=1.01x    frame= 3525 fps= 15 q=-1.0 size=  128000kB time=00:03:54.52 bitrate=4471.1kbits/s speed=1.01x    frame= 3533 fps= 15 q=-1.0 size=  128512kB time=00:03:55.04 bitrate=4479.0kbits/s speed=1.01x    frame= 3541 fps= 15 q=-1.0 size=  128768kB time=00:03:55.60 bitrate=4477.3kbits/s speed=1.01x    frame= 3549 fps= 15 q=-1.0 size=  129024kB time=00:03:56.12 bitrate=4476.3kbits/s speed=1.01x    frame= 3557 fps= 15 q=-1.0 size=  129280kB time=00:03:56.64 bitrate=4475.3kbits/s speed=1.01x    frame= 3565 fps= 15 q=-1.0 size=  129536kB time=00:03:57.20 bitrate=4473.6kbits/s speed=1.01x    frame= 3573 fps= 15 q=-1.0 size=  129792kB time=00:03:57.72 bitrate=4472.7kbits/s speed=1.01x    frame= 3581 fps= 15 q=-1.0 size=  130304kB time=00:03:58.24 bitrate=4480.5kbits/s speed=1.01x    frame= 3589 fps= 15 q=-1.0 size=  130560kB time=00:03:58.80 bitrate=4478.8kbits/s speed=1.01x    frame= 3597 fps= 15 q=-1.0 size=  130816kB time=00:03:59.32 bitrate=4477.8kbits/s speed=1.01x    frame= 3605 fps= 15 q=-1.0 size=  131072kB time=00:03:59.84 bitrate=4476.9kbits/s speed=1.01x    frame= 3613 fps= 15 q=-1.0 size=  131328kB time=00:04:00.40 bitrate=4475.2kbits/s speed=1.01x    frame= 3621 fps= 15 q=-1.0 size=  131840kB time=00:04:00.92 bitrate=4482.9kbits/s speed=1.01x    frame= 3629 fps= 15 q=-1.0 size=  132096kB time=00:04:01.44 bitrate=4481.9kbits/s speed=1.01x    frame= 3637 fps= 15 q=-1.0 size=  132352kB time=00:04:02.00 bitrate=4480.2kbits/s speed=1.01x    frame= 3645 fps= 15 q=-1.0 size=  132608kB time=00:04:02.52 bitrate=4479.3kbits/s speed=1.01x    frame= 3653 fps= 15 q=-1.0 size=  132864kB time=00:04:03.04 bitrate=4478.3kbits/s speed=1.01x    frame= 3661 fps= 15 q=-1.0 size=  133376kB time=00:04:03.60 bitrate=4485.2kbits/s speed=1.01x    frame= 3669 fps= 15 q=-1.0 size=  133632kB time=00:04:04.12 bitrate=4484.3kbits/s speed=1.01x    frame= 3677 fps= 15 q=-1.0 size=  133888kB time=00:04:04.64 bitrate=4483.3kbits/s speed=1.01x    frame= 3685 fps= 15 q=-1.0 size=  134144kB time=00:04:05.20 bitrate=4481.6kbits/s speed=1.01x    frame= 3693 fps= 15 q=-1.0 size=  134400kB time=00:04:05.72 bitrate=4480.7kbits/s speed=1.01x    frame= 3701 fps= 15 q=-1.0 size=  134656kB time=00:04:06.24 bitrate=4479.7kbits/s speed=1.01x    frame= 3709 fps= 15 q=-1.0 size=  135168kB time=00:04:06.80 bitrate=4486.6kbits/s speed=1.01x    frame= 3717 fps= 15 q=-1.0 size=  135424kB time=00:04:07.32 bitrate=4485.6kbits/s speed=1.01x    frame= 3725 fps= 15 q=-1.0 size=  135680kB time=00:04:07.84 bitrate=4484.7kbits/s speed=1.01x    frame= 3733 fps= 15 q=-1.0 size=  135936kB time=00:04:08.40 bitrate=4483.0kbits/s speed=1.01x    frame= 3741 fps= 15 q=-1.0 size=  136192kB time=00:04:08.92 bitrate=4482.1kbits/s speed=1.01x    frame= 3749 fps= 15 q=-1.0 size=  136448kB time=00:04:09.44 bitrate=4481.1kbits/s speed=1.01x    frame= 3757 fps= 15 q=-1.0 size=  136704kB time=00:04:10.00 bitrate=4479.5kbits/s speed=1.01x    frame= 3765 fps= 15 q=-1.0 size=  137216kB time=00:04:10.52 bitrate=4486.9kbits/s speed=1.01x    frame= 3773 fps= 15 q=-1.0 size=  137472kB time=00:04:11.04 bitrate=4486.0kbits/s speed=1.01x    frame= 3781 fps= 15 q=-1.0 size=  137728kB time=00:04:11.60 bitrate=4484.3kbits/s speed=1.01x    frame= 3789 fps= 15 q=-1.0 size=  137984kB time=00:04:12.12 bitrate=4483.4kbits/s speed=1.01x    frame= 3797 fps= 15 q=-1.0 size=  138240kB time=00:04:12.64 bitrate=4482.5kbits/s speed=1.01x    frame= 3805 fps= 15 q=-1.0 size=  138496kB time=00:04:13.20 bitrate=4480.9kbits/s speed=1.01x    frame= 3813 fps= 15 q=-1.0 size=  139008kB time=00:04:13.72 bitrate=4488.2kbits/s speed=1.01x    frame= 3821 fps= 15 q=-1.0 size=  139264kB time=00:04:14.24 bitrate=4487.3kbits/s speed=1.01x    frame= 3829 fps= 15 q=-1.0 size=  139520kB time=00:04:14.80 bitrate=4485.6kbits/s speed=1.01x    frame= 3837 fps= 15 q=-1.0 size=  139776kB time=00:04:15.32 bitrate=4484.7kbits/s speed=1.01x    frame= 3845 fps= 15 q=-1.0 size=  140032kB time=00:04:15.84 bitrate=4483.8kbits/s speed=1.01x    frame= 3853 fps= 15 q=-1.0 size=  140288kB time=00:04:16.40 bitrate=4482.2kbits/s speed=1.01x    frame= 3861 fps= 15 q=-1.0 size=  140800kB time=00:04:16.92 bitrate=4489.4kbits/s speed=1.01x    frame= 3869 fps= 15 q=-1.0 size=  141056kB time=00:04:17.44 bitrate=4488.5kbits/s speed=1.01x    frame= 3877 fps= 15 q=-1.0 size=  141312kB time=00:04:18.00 bitrate=4486.9kbits/s speed=1.01x    frame= 3885 fps= 15 q=-1.0 size=  141568kB time=00:04:18.52 bitrate=4486.0kbits/s speed=1.01x    frame= 3893 fps= 15 q=-1.0 size=  141824kB time=00:04:19.04 bitrate=4485.1kbits/s speed=1.01x    frame= 3901 fps= 15 q=-1.0 size=  142080kB time=00:04:19.60 bitrate=4483.5kbits/s speed=1.01x    frame= 3909 fps= 15 q=-1.0 size=  142592kB time=00:04:20.12 bitrate=4490.7kbits/s speed=1.01x    frame= 3917 fps= 15 q=-1.0 size=  142848kB time=00:04:20.64 bitrate=4489.7kbits/s speed=1.01x    frame= 3925 fps= 15 q=-1.0 size=  143104kB time=00:04:21.20 bitrate=4488.2kbits/s speed=1.01x    frame= 3933 fps= 15 q=-1.0 size=  143360kB time=00:04:21.72 bitrate=4487.2kbits/s speed=1.01x    frame= 3941 fps= 15 q=-1.0 size=  143616kB time=00:04:22.24 bitrate=4486.3kbits/s speed=1.01x    frame= 3949 fps= 15 q=-1.0 size=  143872kB time=00:04:22.80 bitrate=4484.8kbits/s speed=1.01x    frame= 3957 fps= 15 q=-1.0 size=  144128kB time=00:04:23.32 bitrate=4483.9kbits/s speed=1.01x    frame= 3965 fps= 15 q=-1.0 size=  144640kB time=00:04:23.84 bitrate=4490.9kbits/s speed=1.01x    frame= 3973 fps= 15 q=-1.0 size=  144896kB time=00:04:24.40 bitrate=4489.4kbits/s speed=1.01x    frame= 3981 fps= 15 q=-1.0 size=  145152kB time=00:04:24.92 bitrate=4488.5kbits/s speed=1.01x    frame= 3989 fps= 15 q=-1.0 size=  145408kB time=00:04:25.44 bitrate=4487.6kbits/s speed=1.01x    frame= 3997 fps= 15 q=-1.0 size=  145664kB time=00:04:26.00 bitrate=4486.0kbits/s speed=1.01x    frame= 4005 fps= 15 q=-1.0 size=  145920kB time=00:04:26.52 bitrate=4485.1kbits/s speed=1.01x    frame= 4013 fps= 15 q=-1.0 size=  146176kB time=00:04:27.04 bitrate=4484.2kbits/s speed=1.01x    frame= 4021 fps= 15 q=-1.0 size=  146688kB time=00:04:27.60 bitrate=4490.5kbits/s speed=1.01x    frame= 4029 fps= 15 q=-1.0 size=  146944kB time=00:04:28.12 bitrate=4489.6kbits/s speed=1.01x    frame= 4037 fps= 15 q=-1.0 size=  147200kB time=00:04:28.63 bitrate=4488.8kbits/s speed=1.01x    frame= 4045 fps= 15 q=-1.0 size=  147456kB time=00:04:29.19 bitrate=4487.2kbits/s speed=1.01x    frame= 4053 fps= 15 q=-1.0 size=  147712kB time=00:04:29.71 bitrate=4486.4kbits/s speed=1.01x    frame= 4061 fps= 15 q=-1.0 size=  147968kB time=00:04:30.23 bitrate=4485.5kbits/s speed=1.01x    frame= 4069 fps= 15 q=-1.0 size=  148480kB time=00:04:30.79 bitrate=4491.7kbits/s speed=1.01x    frame= 4077 fps= 15 q=-1.0 size=  148736kB time=00:04:31.31 bitrate=4490.8kbits/s speed=1.01x    frame= 4085 fps= 15 q=-1.0 size=  148992kB time=00:04:31.83 bitrate=4489.9kbits/s speed=1.01x    frame= 4093 fps= 15 q=-1.0 size=  149248kB time=00:04:32.39 bitrate=4488.4kbits/s speed=1.01x    frame= 4101 fps= 15 q=-1.0 size=  149504kB time=00:04:32.91 bitrate=4487.5kbits/s speed=1.01x    frame= 4109 fps= 15 q=-1.0 size=  150016kB time=00:04:33.43 bitrate=4494.3kbits/s speed=1.01x    frame= 4117 fps= 15 q=-1.0 size=  150272kB time=00:04:33.99 bitrate=4492.8kbits/s speed=1.01x    frame= 4125 fps= 15 q=-1.0 size=  150528kB time=00:04:34.51 bitrate=4491.9kbits/s speed=1.01x    frame= 4133 fps= 15 q=-1.0 size=  150784kB time=00:04:35.03 bitrate=4491.1kbits/s speed=1.01x    frame= 4141 fps= 15 q=-1.0 size=  151040kB time=00:04:35.59 bitrate=4489.6kbits/s speed=1.01x    frame= 4149 fps= 15 q=-1.0 size=  151552kB time=00:04:36.11 bitrate=4496.3kbits/s speed=1.01x    frame= 4157 fps= 15 q=-1.0 size=  151808kB time=00:04:36.63 bitrate=4495.4kbits/s speed=1.01x    frame= 4165 fps= 15 q=-1.0 size=  152064kB time=00:04:37.19 bitrate=4493.9kbits/s speed=1.01x    frame= 4173 fps= 15 q=-1.0 size=  152320kB time=00:04:37.71 bitrate=4493.0kbits/s speed=1.01x    frame= 4181 fps= 15 q=-1.0 size=  152576kB time=00:04:38.23 bitrate=4492.2kbits/s speed=1.01x    frame= 4189 fps= 15 q=-1.0 size=  152832kB time=00:04:38.79 bitrate=4490.7kbits/s speed=1.01x    frame= 4197 fps= 15 q=-1.0 size=  153088kB time=00:04:39.31 bitrate=4489.8kbits/s speed=1.01x    frame= 4205 fps= 15 q=-1.0 size=  153600kB time=00:04:39.83 bitrate=4496.5kbits/s speed=1.01x    frame= 4213 fps= 15 q=-1.0 size=  153856kB time=00:04:40.39 bitrate=4495.0kbits/s speed=1.01x    frame= 4221 fps= 15 q=-1.0 size=  154112kB time=00:04:40.91 bitrate=4494.1kbits/s speed=1.01x    frame= 4229 fps= 15 q=-1.0 size=  154368kB time=00:04:41.43 bitrate=4493.3kbits/s speed=1.01x    frame= 4237 fps= 15 q=-1.0 size=  154624kB time=00:04:41.99 bitrate=4491.8kbits/s speed=1.01x    frame= 4245 fps= 15 q=-1.0 size=  154880kB time=00:04:42.51 bitrate=4491.0kbits/s speed=1.01x    frame= 4253 fps= 15 q=-1.0 size=  155136kB time=00:04:43.03 bitrate=4490.1kbits/s speed=1.01x    frame= 4261 fps= 15 q=-1.0 size=  155392kB time=00:04:43.59 bitrate=4488.6kbits/s speed=1.01x    frame= 4269 fps= 15 q=-1.0 size=  155648kB time=00:04:44.11 bitrate=4487.8kbits/s speed=1.01x    frame= 4277 fps= 15 q=-1.0 size=  155904kB time=00:04:44.63 bitrate=4487.0kbits/s speed=1.01x    frame= 4285 fps= 15 q=-1.0 size=  156416kB time=00:04:45.19 bitrate=4492.9kbits/s speed=1.01x    frame= 4293 fps= 15 q=-1.0 size=  156672kB time=00:04:45.71 bitrate=4492.0kbits/s speed=1.01x    frame= 4301 fps= 15 q=-1.0 size=  156928kB time=00:04:46.23 bitrate=4491.2kbits/s speed=1.01x    frame= 4309 fps= 15 q=-1.0 size=  157184kB time=00:04:46.79 bitrate=4489.7kbits/s speed=1.01x    frame= 4317 fps= 15 q=-1.0 size=  157440kB time=00:04:47.31 bitrate=4488.9kbits/s speed=1.01x    frame= 4325 fps= 15 q=-1.0 size=  157696kB time=00:04:47.83 bitrate=4488.1kbits/s speed=1.01x    frame= 4333 fps= 15 q=-1.0 size=  157952kB time=00:04:48.39 bitrate=4486.6kbits/s speed=1.01x    frame= 4341 fps= 15 q=-1.0 size=  158208kB time=00:04:48.91 bitrate=4485.8kbits/s speed=1.01x    frame= 4349 fps= 15 q=-1.0 size=  158464kB time=00:04:49.43 bitrate=4485.0kbits/s speed=1.01x    frame= 4357 fps= 15 q=-1.0 size=  158976kB time=00:04:49.99 bitrate=4490.8kbits/s speed=1.01x    frame= 4365 fps= 15 q=-1.0 size=  159232kB time=00:04:50.51 bitrate=4490.0kbits/s speed=1.01x    frame= 4373 fps= 15 q=-1.0 size=  159488kB time=00:04:51.03 bitrate=4489.2kbits/s speed=1.01x    frame= 4381 fps= 15 q=-1.0 size=  159744kB time=00:04:51.59 bitrate=4487.8kbits/s speed=1.01x    frame= 4389 fps= 15 q=-1.0 size=  160000kB time=00:04:52.11 bitrate=4487.0kbits/s speed=1.01x    frame= 4397 fps= 15 q=-1.0 size=  160256kB time=00:04:52.63 bitrate=4486.2kbits/s speed=1.01x    frame= 4405 fps= 15 q=-1.0 size=  160512kB time=00:04:53.19 bitrate=4484.7kbits/s speed=1.01x    frame= 4413 fps= 15 q=-1.0 size=  160768kB time=00:04:53.71 bitrate=4483.9kbits/s speed=1.01x    frame= 4421 fps= 15 q=-1.0 size=  161024kB time=00:04:54.23 bitrate=4483.1kbits/s speed=1.01x    frame= 4429 fps= 15 q=-1.0 size=  161536kB time=00:04:54.79 bitrate=4488.9kbits/s speed=1.01x    frame= 4437 fps= 15 q=-1.0 size=  161792kB time=00:04:55.31 bitrate=4488.0kbits/s speed=1.01x    frame= 4445 fps= 15 q=-1.0 size=  162048kB time=00:04:55.83 bitrate=4487.2kbits/s speed=1.01x    frame= 4453 fps= 15 q=-1.0 size=  162304kB time=00:04:56.39 bitrate=4485.8kbits/s speed=1.01x    frame= 4461 fps= 15 q=-1.0 size=  162560kB time=00:04:56.91 bitrate=4485.1kbits/s speed=1.01x    frame= 4469 fps= 15 q=-1.0 size=  162816kB time=00:04:57.43 bitrate=4484.3kbits/s speed=1.01x    frame= 4477 fps= 15 q=-1.0 size=  163072kB time=00:04:57.99 bitrate=4482.9kbits/s speed=1.01x    frame= 4485 fps= 15 q=-1.0 size=  163584kB time=00:04:58.51 bitrate=4489.1kbits/s speed=1.01x    frame= 4493 fps= 15 q=-1.0 size=  163840kB time=00:04:59.03 bitrate=4488.3kbits/s speed=1.01x    frame= 4501 fps= 15 q=-1.0 size=  164096kB time=00:04:59.59 bitrate=4486.9kbits/s speed=1.01x    frame= 4509 fps= 15 q=-1.0 size=  164352kB time=00:05:00.11 bitrate=4486.2kbits/s speed=1.01x    frame= 4517 fps= 15 q=-1.0 size=  164608kB time=00:05:00.63 bitrate=4485.4kbits/s speed=1.01x    frame= 4525 fps= 15 q=-1.0 size=  164864kB time=00:05:01.19 bitrate=4484.0kbits/s speed=1.01x    frame= 4533 fps= 15 q=-1.0 size=  165120kB time=00:05:01.71 bitrate=4483.2kbits/s speed=1.01x    frame= 4541 fps= 15 q=-1.0 size=  165376kB time=00:05:02.23 bitrate=4482.4kbits/s speed=1.01x    frame= 4549 fps= 15 q=-1.0 size=  165888kB time=00:05:02.79 bitrate=4488.0kbits/s speed=1.01x    frame= 4557 fps= 15 q=-1.0 size=  166144kB time=00:05:03.31 bitrate=4487.2kbits/s speed=1.01x    frame= 4565 fps= 15 q=-1.0 size=  166400kB time=00:05:03.83 bitrate=4486.5kbits/s speed=1.01x    frame= 4573 fps= 15 q=-1.0 size=  166656kB time=00:05:04.39 bitrate=4485.1kbits/s speed=1.01x    frame= 4581 fps= 15 q=-1.0 size=  166912kB time=00:05:04.91 bitrate=4484.3kbits/s speed=1.01x    frame= 4589 fps= 15 q=-1.0 size=  167168kB time=00:05:05.43 bitrate=4483.6kbits/s speed=1.01x    frame= 4597 fps= 15 q=-1.0 size=  167424kB time=00:05:05.99 bitrate=4482.2kbits/s speed=1.01x    frame= 4605 fps= 15 q=-1.0 size=  167936kB time=00:05:06.51 bitrate=4488.3kbits/s speed=1.01x    frame= 4613 fps= 15 q=-1.0 size=  168192kB time=00:05:07.03 bitrate=4487.5kbits/s speed=1.01x    frame= 4621 fps= 15 q=-1.0 size=  168448kB time=00:05:07.59 bitrate=4486.2kbits/s speed=1.01x    frame= 4629 fps= 15 q=-1.0 size=  168704kB time=00:05:08.11 bitrate=4485.4kbits/s speed=1.01x    frame= 4637 fps= 15 q=-1.0 size=  168960kB time=00:05:08.63 bitrate=4484.6kbits/s speed=1.01x    frame= 4645 fps= 15 q=-1.0 size=  169216kB time=00:05:09.19 bitrate=4483.3kbits/s speed=1.01x    frame= 4653 fps= 15 q=-1.0 size=  169472kB time=00:05:09.71 bitrate=4482.5kbits/s speed=1.01x    frame= 4661 fps= 15 q=-1.0 size=  169984kB time=00:05:10.23 bitrate=4488.6kbits/s speed=1.01x    frame= 4669 fps= 15 q=-1.0 size=  170240kB time=00:05:10.79 bitrate=4487.2kbits/s speed=1.01x    frame= 4677 fps= 15 q=-1.0 size=  170496kB time=00:05:11.31 bitrate=4486.5kbits/s speed=1.01x    frame= 4685 fps= 15 q=-1.0 size=  170752kB time=00:05:11.83 bitrate=4485.7kbits/s speed=1.01x    frame= 4693 fps= 15 q=-1.0 size=  171008kB time=00:05:12.39 bitrate=4484.4kbits/s speed=1.01x    frame= 4701 fps= 15 q=-1.0 size=  171264kB time=00:05:12.91 bitrate=4483.6kbits/s speed=1.01x    frame= 4709 fps= 15 q=-1.0 size=  171520kB time=00:05:13.43 bitrate=4482.9kbits/s speed=1.01x    frame= 4717 fps= 15 q=-1.0 size=  171776kB time=00:05:13.99 bitrate=4481.6kbits/s speed=1.01x    frame= 4725 fps= 15 q=-1.0 size=  172032kB time=00:05:14.51 bitrate=4480.8kbits/s speed=1.01x    frame= 4733 fps= 15 q=-1.0 size=  172544kB time=00:05:15.03 bitrate=4486.7kbits/s speed=1.01x    frame= 4741 fps= 15 q=-1.0 size=  172800kB time=00:05:15.59 bitrate=4485.4kbits/s speed=1.01x    frame= 4749 fps= 15 q=-1.0 size=  173056kB time=00:05:16.11 bitrate=4484.7kbits/s speed=1.01x    frame= 4757 fps= 15 q=-1.0 size=  173312kB time=00:05:16.63 bitrate=4483.9kbits/s speed=1.01x    frame= 4765 fps= 15 q=-1.0 size=  173568kB time=00:05:17.19 bitrate=4482.6kbits/s speed=1.01x    frame= 4773 fps= 15 q=-1.0 size=  173824kB time=00:05:17.71 bitrate=4481.9kbits/s speed=1.01x    frame= 4781 fps= 15 q=-1.0 size=  174080kB time=00:05:18.23 bitrate=4481.2kbits/s speed=1.01x    frame= 4789 fps= 15 q=-1.0 size=  174592kB time=00:05:18.79 bitrate=4486.5kbits/s speed=1.01x    frame= 4797 fps= 15 q=-1.0 size=  174848kB time=00:05:19.31 bitrate=4485.7kbits/s speed=1.01x    frame= 4805 fps= 15 q=-1.0 size=  175104kB time=00:05:19.83 bitrate=4485.0kbits/s speed=1.01x    frame= 4813 fps= 15 q=-1.0 size=  175360kB time=00:05:20.39 bitrate=4483.7kbits/s speed=1.01x    frame= 4821 fps= 15 q=-1.0 size=  175616kB time=00:05:20.91 bitrate=4483.0kbits/s speed=1.01x    frame= 4829 fps= 15 q=-1.0 size=  175872kB time=00:05:21.43 bitrate=4482.2kbits/s speed=1.01x    frame= 4837 fps= 15 q=-1.0 size=  176128kB time=00:05:21.99 bitrate=4480.9kbits/s speed=1.01x    frame= 4845 fps= 15 q=-1.0 size=  176384kB time=00:05:22.51 bitrate=4480.2kbits/s speed=1.01x    frame= 4853 fps= 15 q=-1.0 size=  176896kB time=00:05:23.03 bitrate=4486.0kbits/s speed=1.01x    frame= 4861 fps= 15 q=-1.0 size=  177152kB time=00:05:23.59 bitrate=4484.7kbits/s speed=1.01x    frame= 4869 fps= 15 q=-1.0 size=  177408kB time=00:05:24.11 bitrate=4484.0kbits/s speed=1.01x    frame= 4877 fps= 15 q=-1.0 size=  177664kB time=00:05:24.63 bitrate=4483.3kbits/s speed=1.01x    frame= 4885 fps= 15 q=-1.0 size=  177920kB time=00:05:25.19 bitrate=4482.0kbits/s speed=1.01x    frame= 4893 fps= 15 q=-1.0 size=  178176kB time=00:05:25.71 bitrate=4481.3kbits/s speed=1.01x    frame= 4901 fps= 15 q=-1.0 size=  178432kB time=00:05:26.23 bitrate=4480.6kbits/s speed=1.01x    frame= 4909 fps= 15 q=-1.0 size=  178944kB time=00:05:26.79 bitrate=4485.7kbits/s speed=1.01x    frame= 4917 fps= 15 q=-1.0 size=  179200kB time=00:05:27.31 bitrate=4485.0kbits/s speed=1.01x    frame= 4925 fps= 15 q=-1.0 size=  179456kB time=00:05:27.83 bitrate=4484.3kbits/s speed=1.01x    frame= 4933 fps= 15 q=-1.0 size=  179712kB time=00:05:28.39 bitrate=4483.0kbits/s speed=1.01x    frame= 4941 fps= 15 q=-1.0 size=  179968kB time=00:05:28.91 bitrate=4482.3kbits/s speed=1.01x    frame= 4949 fps= 15 q=-1.0 size=  180224kB time=00:05:29.43 bitrate=4481.6kbits/s speed=1.01x    frame= 4957 fps= 15 q=-1.0 size=  180480kB time=00:05:29.99 bitrate=4480.4kbits/s speed=1.01x    frame= 4965 fps= 15 q=-1.0 size=  180736kB time=00:05:30.51 bitrate=4479.7kbits/s speed=1.01x    frame= 4973 fps= 15 q=-1.0 size=  181248kB time=00:05:31.03 bitrate=4485.3kbits/s speed=1.01x    frame= 4981 fps= 15 q=-1.0 size=  181504kB time=00:05:31.59 bitrate=4484.0kbits/s speed=1.01x    frame= 4989 fps= 15 q=-1.0 size=  181760kB time=00:05:32.11 bitrate=4483.3kbits/s speed=1.01x    frame= 4997 fps= 15 q=-1.0 size=  182016kB time=00:05:32.63 bitrate=4482.6kbits/s speed=1.01x    frame= 5005 fps= 15 q=-1.0 size=  182272kB time=00:05:33.19 bitrate=4481.4kbits/s speed=1.01x    